<svg id="Layer_1" data-name="Layer 1" xmlns="http://www.w3.org/2000/svg" viewBox="0 0 616.79 106.91"><defs><style>.cls-1{fill:#545454;}.cls-2{fill:none;}.cls-3{fill:#5ce1e6;}.cls-4{fill:#38b6ff;}.cls-5{fill:#ffde59;}.cls-6{fill:#ff66c4;}</style></defs><path d="M186.29,45.51a13.44,13.44,0,0,1-3.87,9.62,13,13,0,0,1-19,0,13.36,13.36,0,0,1-3.78-9.62,13.62,13.62,0,0,1,3.78-9.62,13,13,0,0,1,19,0A13.71,13.71,0,0,1,186.29,45.51ZM159.67,85.86V58a5.62,5.62,0,0,0,1,1.29,17.46,17.46,0,0,0,26.36,0,20,20,0,0,0,5.24-13.74,20.31,20.31,0,0,0-5.24-13.74,17.46,17.46,0,0,0-26.36,0,8.76,8.76,0,0,0-1,1.37V26.62h-6V85.86Z"/><path d="M240.55,64.4V26.62h-6v6.52c-.35-.51-.78-.94-1.12-1.37a17.46,17.46,0,0,0-26.36,0,20.22,20.22,0,0,0-5.15,13.74,19.94,19.94,0,0,0,5.15,13.74,17.46,17.46,0,0,0,26.36,0A10,10,0,0,0,234.54,58V64.4Zm-6-18.89a13.44,13.44,0,0,1-3.87,9.62,13,13,0,0,1-19,0,13.36,13.36,0,0,1-3.78-9.62,13.62,13.62,0,0,1,3.78-9.62,13,13,0,0,1,19,0A13.71,13.71,0,0,1,234.54,45.51Z"/><path d="M260.72,59.07a8.57,8.57,0,0,1-3.18-5.23h-6.35c1.28,7.81,6.26,11.67,15,11.67a21,21,0,0,0,5.76-.68,17.44,17.44,0,0,0,4.8-2.15q4.38-3,4.38-9c0-4.13-1.89-7.05-5.84-8.93a24.55,24.55,0,0,0-5.41-1.81c-1.88-.43-3.69-.94-5.32-1.46a14.72,14.72,0,0,1-4.21-2,4.18,4.18,0,0,1-1.71-3.69A4,4,0,0,1,260.72,32a8.92,8.92,0,0,1,4.81-1.29,10.13,10.13,0,0,1,4.8,1.12A6.43,6.43,0,0,1,273.25,36h6.44c-.77-3.78-2.4-6.44-4.81-7.9a16.91,16.91,0,0,0-9.18-2.32,16,16,0,0,0-9.45,2.92,10.2,10.2,0,0,0-3.95,8.59,8.38,8.38,0,0,0,1.46,4.8,10.48,10.48,0,0,0,4.38,3.44,37.53,37.53,0,0,0,5.41,1.89c1.89.43,3.69.94,5.41,1.46,3.86,1.29,5.84,3.17,5.84,5.58,0,4.12-2.75,6.09-8.24,6.09A10.27,10.27,0,0,1,260.72,59.07Z"/><polygon points="286.99 32.2 296.43 32.2 296.43 64.4 302.44 64.4 302.44 32.2 311.8 32.2 311.8 26.62 302.44 26.62 302.44 11.94 296.43 11.94 296.43 26.62 286.99 26.62 286.99 32.2"/><polygon points="326.65 85.86 352.75 26.62 346.06 26.62 335.24 51.95 323.13 26.62 316.26 26.62 332.06 58.22 319.35 85.86 326.65 85.86"/><path d="M392.85,45.51A13.44,13.44,0,0,1,389,55.13a13,13,0,0,1-19,0,13.36,13.36,0,0,1-3.78-9.62A13.62,13.62,0,0,1,370,35.89a13,13,0,0,1,19,0A13.71,13.71,0,0,1,392.85,45.51ZM366.23,85.86V58a5.62,5.62,0,0,0,1,1.29,17.46,17.46,0,0,0,26.36,0,20.07,20.07,0,0,0,5.24-13.74,20.36,20.36,0,0,0-5.24-13.74,17.46,17.46,0,0,0-26.36,0,8.76,8.76,0,0,0-1,1.37V26.62h-6V85.86Z"/><path d="M417.05,64.4V48.6c0-5.24.86-9.19,2.66-11.94a10.46,10.46,0,0,1,4-3.52,13.24,13.24,0,0,1,6.27-1.28,6.08,6.08,0,0,1,5.5,2.66,11.43,11.43,0,0,1,1.71,6.27V64.4h6V40.79a16,16,0,0,0-3.44-10.57,12.68,12.68,0,0,0-4.21-3.17,15.65,15.65,0,0,0-6.52-1.2A12.5,12.5,0,0,0,421.86,28a14.7,14.7,0,0,0-4.81,5.15V0h-6V64.4Z"/><path d="M493.55,45.34a19,19,0,0,0-5.84-13.91,19.58,19.58,0,0,0-27.9,0,18.91,18.91,0,0,0-5.76,13.91,18.66,18.66,0,0,0,5.76,13.91,19.8,19.8,0,0,0,27.9,0A18.73,18.73,0,0,0,493.55,45.34Zm-6,0A13.79,13.79,0,0,1,473.8,59a13,13,0,0,1-9.7-4,12.77,12.77,0,0,1-4-9.61,13.11,13.11,0,0,1,4-9.71,13.69,13.69,0,0,1,19.4,0A13.42,13.42,0,0,1,487.54,45.34Z"/><polygon points="501.01 32.2 510.46 32.2 510.46 64.4 516.47 64.4 516.47 32.2 525.83 32.2 525.83 26.62 516.47 26.62 516.47 11.94 510.46 11.94 510.46 26.62 501.01 26.62 501.01 32.2"/><path d="M572.79,45.34A19,19,0,0,0,567,31.43a19.58,19.58,0,0,0-27.9,0,18.91,18.91,0,0,0-5.76,13.91,18.66,18.66,0,0,0,5.76,13.91,19.8,19.8,0,0,0,27.9,0A18.73,18.73,0,0,0,572.79,45.34Zm-6,0A13.78,13.78,0,0,1,553,59a13,13,0,0,1-9.7-4,12.77,12.77,0,0,1-4-9.61,13.11,13.11,0,0,1,4-9.71,13.28,13.28,0,0,1,9.7-4,13.76,13.76,0,0,1,13.74,13.74Z"/><path d="M590.39,59.07a8.57,8.57,0,0,1-3.18-5.23h-6.36c1.29,7.81,6.27,11.67,15,11.67a20.9,20.9,0,0,0,5.75-.68,17.38,17.38,0,0,0,4.81-2.15q4.38-3,4.38-9c0-4.13-1.89-7.05-5.84-8.93a24.55,24.55,0,0,0-5.41-1.81c-1.89-.43-3.69-.94-5.32-1.46a14.72,14.72,0,0,1-4.21-2,4.18,4.18,0,0,1-1.72-3.69A4,4,0,0,1,590.39,32a8.91,8.91,0,0,1,4.8-1.29A10.17,10.17,0,0,1,600,31.86,6.43,6.43,0,0,1,602.92,36h6.44c-.77-3.78-2.4-6.44-4.81-7.9a16.91,16.91,0,0,0-9.18-2.32,16,16,0,0,0-9.45,2.92A10.18,10.18,0,0,0,582,37.27a8.38,8.38,0,0,0,1.46,4.8,10.48,10.48,0,0,0,4.38,3.44,37.53,37.53,0,0,0,5.41,1.89c1.89.43,3.69.94,5.41,1.46,3.86,1.29,5.84,3.17,5.84,5.58,0,4.12-2.75,6.09-8.25,6.09A10.26,10.26,0,0,1,590.39,59.07Z"/><path class="cls-1" d="M444.94,84.91a27.5,27.5,0,0,1,5.19-.46c2.84,0,4.66.49,6,1.6A4.63,4.63,0,0,1,458,89.94a5.22,5.22,0,0,1-3.72,4.83v.06a5.67,5.67,0,0,1,4.54,5.52,6,6,0,0,1-1.86,4.41c-1.54,1.4-4,2-7.61,2a33.12,33.12,0,0,1-4.4-.26Zm2.84,9h2.58c3,0,4.76-1.57,4.76-3.69,0-2.58-2-3.59-4.83-3.59a12.89,12.89,0,0,0-2.51.19Zm0,10.54a14.87,14.87,0,0,0,2.38.13c2.94,0,5.65-1.07,5.65-4.27,0-3-2.58-4.24-5.68-4.24h-2.35Z"/><path class="cls-1" d="M479.12,106.62V97.28l-7-12.66h3.24l3.1,6.07c.85,1.66,1.5,3,2.19,4.53h.06c.62-1.43,1.37-2.87,2.22-4.53l3.17-6.07h3.23L482,97.25v9.37Z"/><path class="cls-1" d="M588,99.7l-2.28,6.92h-2.94l7.47-22h3.43l7.51,22h-3L595.8,99.7Zm7.21-2.22-2.15-6.34c-.49-1.43-.82-2.74-1.14-4h-.07c-.32,1.31-.68,2.64-1.11,4l-2.15,6.37Z"/><path class="cls-1" d="M526.72,99.7l-2.29,6.92H521.5l7.47-22h3.43l7.5,22h-3l-2.35-6.92Zm7.21-2.22-2.15-6.34c-.49-1.43-.82-2.74-1.14-4h-.07c-.33,1.31-.69,2.64-1.11,4l-2.15,6.37Z"/><path class="cls-1" d="M570.49,97c-.16-3.07-.36-6.76-.33-9.51h-.09c-.75,2.59-1.67,5.33-2.78,8.36l-3.88,10.67h-2.16L557.69,96c-1-3.1-1.92-5.94-2.54-8.56h-.07c-.06,2.75-.22,6.44-.42,9.73l-.59,9.44h-2.71l1.54-22h3.62l3.76,10.64c.91,2.71,1.66,5.12,2.21,7.41h.1c.56-2.22,1.34-4.64,2.32-7.41l3.92-10.64h3.62l1.37,22h-2.77Z"/><polygon class="cls-2" points="48.12 104.05 0 104.05 0 55.93 0 55.81 0 55.81 0 104.05 48.24 104.05 48.24 79.99 48.12 79.99 48.12 104.05"/><polygon class="cls-2" points="103.38 104.05 55.26 104.05 55.26 79.99 55.2 79.99 55.2 104.05 103.44 104.05 103.44 56.05 103.38 56.05 103.38 104.05"/><polygon class="cls-2" points="55.2 7.57 55.2 31.87 55.26 31.87 55.26 7.81 103.38 7.81 103.38 55.81 103.44 55.81 103.44 7.57 55.2 7.57"/><rect class="cls-3" y="55.81" width="27.63" height="0.12"/><polygon class="cls-3" points="27.63 31.87 48.12 31.87 48.12 7.81 0 7.81 0 55.81 27.63 55.81 27.63 31.87"/><polygon class="cls-4" points="75.75 79.99 55.26 79.99 55.26 104.05 103.38 104.05 103.38 56.05 75.75 56.05 75.75 79.99"/><rect class="cls-4" x="75.75" y="55.93" width="27.63" height="0.12"/><rect class="cls-5" x="75.75" y="55.81" width="27.63" height="0.12"/><polygon class="cls-5" points="75.75 55.81 103.38 55.81 103.38 7.81 55.26 7.81 55.26 31.87 75.75 31.87 75.75 55.81"/><polygon class="cls-6" points="27.63 55.93 0 55.93 0 104.05 48.12 104.05 48.12 79.99 27.63 79.99 27.63 55.93"/></svg>